<?xml version="1.0" encoding="UTF-8"?>
<svg width="161.04" height="157.06" version="1.1" viewBox="0 0 42.607 41.555" xmlns="http://www.w3.org/2000/svg" xmlns:cc="http://creativecommons.org/ns#" xmlns:dc="http://purl.org/dc/elements/1.1/" xmlns:rdf="http://www.w3.org/1999/02/22-rdf-syntax-ns#">
 <metadata>
  <rdf:RDF>
   <cc:Work rdf:about="">
    <dc:format>image/svg+xml</dc:format>
    <dc:type rdf:resource="http://purl.org/dc/dcmitype/StillImage"/>
    <dc:title/>
   </cc:Work>
  </rdf:RDF>
 </metadata>
 <g transform="translate(0 -255.45)">
  <g transform="matrix(.35278 0 0 -.35278 -96.114 337.88)">
   <g transform="translate(332.84 233.66)">
    <path d="m0 0c-33.347 0-60.388-27.035-60.388-60.388 0-26.68 17.303-49.316 41.297-57.301 3.018-0.559 4.126 1.31 4.126 2.905 0 1.439-0.056 6.197-0.082 11.243-16.8-3.653-20.345 7.125-20.345 7.125-2.747 6.979-6.705 8.836-6.705 8.836-5.479 3.748 0.413 3.671 0.413 3.671 6.064-0.426 9.257-6.224 9.257-6.224 5.386-9.231 14.127-6.562 17.573-5.019 0.543 3.902 2.107 6.567 3.834 8.075-13.413 1.526-27.513 6.705-27.513 29.844 0 6.592 2.359 11.979 6.222 16.208-0.627 1.522-2.694 7.664 0.586 15.982 0 0 5.071 1.622 16.61-6.191 4.817 1.338 9.983 2.009 15.115 2.033 5.132-0.024 10.302-0.695 15.128-2.033 11.526 7.813 16.59 6.191 16.59 6.191 3.287-8.318 1.22-14.46 0.593-15.982 3.872-4.229 6.214-9.616 6.214-16.208 0-23.195-14.127-28.301-27.574-29.796 2.166-1.874 4.096-5.549 4.096-11.183 0-8.08-0.069-14.583-0.069-16.572 0-1.608 1.086-3.491 4.147-2.898 23.982 7.994 41.263 30.622 41.263 57.294 0 33.353-27.037 60.388-60.388 60.388" fill="#fff" fill-rule="evenodd"/>
   </g>
   <g transform="translate(295.32 146.96)">
    <path d="m0 0c-0.133-0.301-0.605-0.391-1.035-0.184-0.439 0.197-0.684 0.606-0.542 0.907 0.13 0.308 0.602 0.394 1.04 0.188 0.438-0.197 0.688-0.61 0.537-0.911" fill="#fff"/>
   </g>
   <g transform="translate(297.77 144.23)">
    <path d="m0 0c-0.288-0.267-0.852-0.143-1.233 0.279-0.396 0.421-0.469 0.985-0.177 1.255 0.297 0.267 0.843 0.142 1.238-0.279 0.396-0.426 0.473-0.985 0.172-1.255" fill="#fff"/>
   </g>
   <g transform="translate(300.15 140.75)">
    <path d="m0 0c-0.37-0.258-0.976-0.017-1.35 0.52-0.37 0.538-0.37 1.182 9e-3 1.44 0.374 0.258 0.971 0.025 1.35-0.507 0.369-0.546 0.369-1.19-9e-3 -1.453" fill="#fff"/>
   </g>
   <g transform="translate(303.41 137.39)">
    <path d="m0 0c-0.331-0.365-1.036-0.267-1.552 0.231-0.528 0.487-0.675 1.178-0.344 1.543 0.336 0.366 1.045 0.263 1.565-0.231 0.524-0.486 0.683-1.182 0.331-1.543" fill="#fff"/>
   </g>
   <g transform="translate(307.91 135.44)">
    <path d="m0 0c-0.147-0.473-0.825-0.687-1.509-0.486-0.683 0.207-1.13 0.76-0.992 1.238 0.142 0.477 0.824 0.7 1.513 0.485 0.682-0.206 1.13-0.756 0.988-1.237" fill="#fff"/>
   </g>
   <g transform="translate(312.85 135.08)">
    <path d="m0 0c0.017-0.498-0.563-0.911-1.281-0.92-0.722-0.017-1.307 0.387-1.315 0.877 0 0.503 0.568 0.911 1.289 0.924 0.718 0.014 1.307-0.387 1.307-0.881" fill="#fff"/>
   </g>
   <g transform="translate(317.45 135.86)">
    <path d="m0 0c0.086-0.485-0.413-0.984-1.126-1.117-0.701-0.129-1.35 0.172-1.439 0.653-0.087 0.498 0.42 0.997 1.121 1.126 0.714 0.124 1.353-0.168 1.444-0.662" fill="#fff"/>
   </g>
  </g>
 </g>
</svg>
